# Blender 3.3.4
# www.blender.org
mtllib door.mtl
o Cube:051
v -0.115862 -0.754469 -0.000000
v -0.115862 0.754469 0.000000
v 0.115862 -0.754469 -0.000000
v 0.115862 0.754469 0.000000
v 0.115862 -0.754469 -1.100455
v 0.115862 0.754469 -1.100455
v -0.115862 -0.754469 -1.100455
v -0.115862 0.754469 -1.100455
v 0.115862 0.666289 0.000000
v -0.115862 0.666289 0.000000
v -0.115862 0.666289 -1.126116
v 0.115862 0.666289 -1.126116
v 0.115862 -0.659235 -0.000000
v -0.115862 -0.659235 -0.000000
v -0.115862 -0.659235 -1.126116
v 0.115862 -0.659235 -1.126116
v 0.146792 0.754469 -1.131384
v 0.146792 0.754469 0.030929
v 0.146792 -0.659235 0.030929
v 0.146792 -0.754469 0.030929
v -0.146792 -0.754469 0.030929
v -0.146792 0.754469 0.030929
v -0.146792 -0.659235 0.030929
v -0.146792 -0.754469 -1.131384
v 0.146792 -0.754469 -1.131384
v -0.146792 0.754469 -1.131384
v -0.146792 -0.659235 -1.131384
v 0.146792 -0.659235 -1.131384
v 0.146792 0.666289 0.030929
v -0.146792 0.666289 0.030929
v -0.146792 0.666289 -1.131384
v 0.146792 0.666289 -1.131384
vn -0.0000 -1.0000 -0.0000
vn -0.0000 1.0000 -0.0000
vn -0.0000 -0.0000 -1.0000
vn 1.0000 -0.0000 -0.0000
vn -0.0000 -0.0000 1.0000
vn -1.0000 -0.0000 -0.0000
vt 0.329501 0.513531
vt 0.444124 0.925392
vt 0.242775 0.513531
vt 0.357398 0.925392
vt 0.242775 0.925392
vt 0.357398 0.513531
vt 0.329501 0.925392
vt 0.444124 0.513531
vt 0.214878 0.925392
vt 0.853154 0.001953
vt 0.849017 0.001953
vt 0.128152 0.925392
vt 0.001953 0.001953
vt 0.939880 0.001953
vt 0.128152 0.503928
vt 0.423416 0.001953
vt 0.547172 0.998047
vt 0.214878 0.503928
vt 0.427554 0.001953
vt 0.460445 0.998047
vt 0.013529 0.925392
vt 0.853154 0.498047
vt 0.849017 0.498047
vt 0.100255 0.925392
vt 0.001953 0.498047
vt 0.939880 0.498047
vt 0.100255 0.503928
vt 0.423416 0.498047
vt 0.547172 0.501956
vt 0.013529 0.503928
vt 0.427554 0.498047
vt 0.460445 0.501956
vt 0.345822 0.501956
vt 0.552144 0.936966
vt 0.665770 0.501956
vt 0.552144 0.501956
vt 0.627895 0.611833
vt 0.345822 0.936967
vt 0.944853 0.440870
vt 0.017901 0.617713
vt 0.001953 0.936968
vt 0.231199 0.501956
vt 0.980495 0.440870
vt 0.053543 0.617713
vt 0.053543 0.507836
vt 0.980495 0.436962
vt 0.341076 0.501956
vt 0.627895 0.501956
vt 0.590020 0.936966
vt 0.455700 0.936967
vt 0.017901 0.507836
vt 0.944853 0.436962
vt 0.111830 0.936968
vt 0.168167 0.617713
vt 0.980495 0.001953
vt 0.341076 0.936967
vt 0.231199 0.936967
vt 0.168167 0.507836
vt 0.980495 0.875879
vt 0.455700 0.501956
vt 0.590020 0.501956
vt 0.665770 0.611833
vt 0.132524 0.617713
vt 0.944853 0.001953
vt 0.111830 0.501957
vt 0.132524 0.507836
vt 0.944853 0.875879
vt 0.001953 0.501956
vt 0.585146 0.501956
vt 0.660897 0.611834
vt 0.226453 0.936967
vt 0.660897 0.501956
vt 0.623022 0.936966
vt 0.116576 0.936967
vt 0.623022 0.501956
vt 0.698773 0.611833
vt 0.116576 0.501956
vt 0.585146 0.936966
vt 0.698773 0.501956
vt 0.226453 0.501956
s 0
usemtl steel.001
f 1/1/1 3/3/1 20/42/1 21/47/1
f 16/30/2 13/21/2 19/41/2 28/68/2
f 5/5/1 7/7/1 24/56/1 25/57/1
f 5/5/1 3/3/1 1/1/1 7/7/1
f 4/4/2 6/6/2 8/8/2 2/2/2
f 11/15/1 10/12/1 30/74/1 31/77/1
f 8/8/2 6/6/2 17/33/2 26/60/2
f 6/6/2 4/4/2 18/38/2 17/33/2
f 2/2/2 8/8/2 26/60/2 22/50/2
f 3/3/1 5/5/1 25/57/1 20/42/1
f 27/63/3 28/66/3 25/58/3 24/54/3
f 32/78/4 17/34/4 18/36/4 29/69/4
f 29/70/5 18/37/5 22/48/5 30/72/5
f 30/73/6 22/49/6 26/61/6 31/75/6
f 26/62/3 17/35/3 32/79/3 31/76/3
f 25/59/4 28/67/4 19/39/4 20/43/4
f 20/44/5 19/40/5 23/51/5 21/45/5
f 21/46/6 23/52/6 27/64/6 24/55/6
f 10/12/1 9/9/1 29/71/1 30/74/1
f 13/21/2 14/24/2 23/53/2 19/41/2
f 4/4/2 2/2/2 22/50/2 18/38/2
f 9/9/1 12/18/1 32/80/1 29/71/1
f 14/24/2 15/27/2 27/65/2 23/53/2
f 12/18/1 11/15/1 31/77/1 32/80/1
f 15/27/2 16/30/2 28/68/2 27/65/2
f 7/7/1 1/1/1 21/47/1 24/56/1
f 14/25/6 10/13/6 11/16/6 15/28/6
f 13/22/5 9/10/5 10/14/5 14/26/5
f 16/31/4 12/19/4 9/11/4 13/23/4
f 11/17/3 12/20/3 16/32/3 15/29/3
